<mxfile host="app.diagrams.net" agent="Mozilla/5.0 (X11; Linux x86_64) AppleWebKit/537.36 (KHTML, like Gecko) Chrome/131.0.0.0 Safari/537.36" version="25.0.3">
  <diagram name="Página-1" id="pUykTYks5Qm1dnX--Zjo">
    <mxGraphModel grid="1" page="1" gridSize="10" guides="1" tooltips="1" connect="1" arrows="1" fold="1" pageScale="1" pageWidth="827" pageHeight="1169" math="0" shadow="0">
      <root>
        <mxCell id="0" />
        <mxCell id="1" parent="0" />
        <mxCell id="1L55RFzGqmZ6MLc_oT1--35" style="edgeStyle=orthogonalEdgeStyle;rounded=0;orthogonalLoop=1;jettySize=auto;html=1;entryX=1;entryY=0.5;entryDx=0;entryDy=0;" edge="1" parent="1" source="1L55RFzGqmZ6MLc_oT1--9" target="1L55RFzGqmZ6MLc_oT1--17">
          <mxGeometry relative="1" as="geometry">
            <Array as="points">
              <mxPoint x="620" y="520" />
              <mxPoint x="620" y="400" />
            </Array>
          </mxGeometry>
        </mxCell>
        <mxCell id="1L55RFzGqmZ6MLc_oT1--9" value="&lt;font&gt;Cadastrar&lt;br&gt;Usuario&lt;/font&gt;" style="rounded=0;whiteSpace=wrap;html=1;sketch=1;curveFitting=1;jiggle=2;fontFamily=Comic Sans MS;" vertex="1" parent="1">
          <mxGeometry x="460" y="490" width="120" height="60" as="geometry" />
        </mxCell>
        <mxCell id="1L55RFzGqmZ6MLc_oT1--49" style="edgeStyle=orthogonalEdgeStyle;rounded=0;orthogonalLoop=1;jettySize=auto;html=1;entryX=0.5;entryY=0;entryDx=0;entryDy=0;" edge="1" parent="1" source="1L55RFzGqmZ6MLc_oT1--12" target="1L55RFzGqmZ6MLc_oT1--19">
          <mxGeometry relative="1" as="geometry" />
        </mxCell>
        <mxCell id="1L55RFzGqmZ6MLc_oT1--12" value="" style="ellipse;whiteSpace=wrap;html=1;rounded=0;sketch=1;curveFitting=1;jiggle=2;fontFamily=Comic Sans MS;" vertex="1" parent="1">
          <mxGeometry x="110" y="270" width="20" height="20" as="geometry" />
        </mxCell>
        <mxCell id="1L55RFzGqmZ6MLc_oT1--32" style="edgeStyle=orthogonalEdgeStyle;rounded=0;orthogonalLoop=1;jettySize=auto;html=1;entryX=0.5;entryY=0;entryDx=0;entryDy=0;" edge="1" parent="1" source="1L55RFzGqmZ6MLc_oT1--17" target="1L55RFzGqmZ6MLc_oT1--21">
          <mxGeometry relative="1" as="geometry">
            <Array as="points">
              <mxPoint x="520" y="300" />
              <mxPoint x="320" y="300" />
            </Array>
          </mxGeometry>
        </mxCell>
        <mxCell id="1L55RFzGqmZ6MLc_oT1--34" style="edgeStyle=orthogonalEdgeStyle;rounded=0;orthogonalLoop=1;jettySize=auto;html=1;" edge="1" parent="1" source="1L55RFzGqmZ6MLc_oT1--17" target="1L55RFzGqmZ6MLc_oT1--9">
          <mxGeometry relative="1" as="geometry" />
        </mxCell>
        <mxCell id="1L55RFzGqmZ6MLc_oT1--17" value="&lt;font&gt;Entrar com login&lt;/font&gt;" style="rounded=0;whiteSpace=wrap;html=1;sketch=1;curveFitting=1;jiggle=2;fontFamily=Comic Sans MS;" vertex="1" parent="1">
          <mxGeometry x="460" y="370" width="120" height="60" as="geometry" />
        </mxCell>
        <mxCell id="1L55RFzGqmZ6MLc_oT1--22" style="edgeStyle=orthogonalEdgeStyle;rounded=0;orthogonalLoop=1;jettySize=auto;html=1;sketch=1;curveFitting=1;jiggle=2;fontFamily=Comic Sans MS;" edge="1" parent="1" source="1L55RFzGqmZ6MLc_oT1--19" target="1L55RFzGqmZ6MLc_oT1--21">
          <mxGeometry relative="1" as="geometry" />
        </mxCell>
        <mxCell id="1L55RFzGqmZ6MLc_oT1--19" value="Validar dados o Usuario" style="whiteSpace=wrap;html=1;rounded=0;sketch=1;curveFitting=1;jiggle=2;fontFamily=Comic Sans MS;" vertex="1" parent="1">
          <mxGeometry x="60" y="370" width="120" height="60" as="geometry" />
        </mxCell>
        <mxCell id="1L55RFzGqmZ6MLc_oT1--26" style="edgeStyle=orthogonalEdgeStyle;rounded=0;orthogonalLoop=1;jettySize=auto;html=1;exitX=1;exitY=0.5;exitDx=0;exitDy=0;" edge="1" parent="1" source="1L55RFzGqmZ6MLc_oT1--21" target="1L55RFzGqmZ6MLc_oT1--17">
          <mxGeometry relative="1" as="geometry" />
        </mxCell>
        <mxCell id="1L55RFzGqmZ6MLc_oT1--30" value="Não" style="edgeLabel;html=1;align=center;verticalAlign=middle;resizable=0;points=[];" connectable="0" vertex="1" parent="1L55RFzGqmZ6MLc_oT1--26">
          <mxGeometry x="-0.0138" y="-2" relative="1" as="geometry">
            <mxPoint as="offset" />
          </mxGeometry>
        </mxCell>
        <mxCell id="1L55RFzGqmZ6MLc_oT1--59" value="" style="edgeStyle=orthogonalEdgeStyle;rounded=0;orthogonalLoop=1;jettySize=auto;html=1;" edge="1" parent="1" source="1L55RFzGqmZ6MLc_oT1--21" target="1L55RFzGqmZ6MLc_oT1--58">
          <mxGeometry relative="1" as="geometry" />
        </mxCell>
        <mxCell id="1L55RFzGqmZ6MLc_oT1--83" value="Sim" style="edgeLabel;html=1;align=center;verticalAlign=middle;resizable=0;points=[];" connectable="0" vertex="1" parent="1L55RFzGqmZ6MLc_oT1--59">
          <mxGeometry x="-0.0028" y="-1" relative="1" as="geometry">
            <mxPoint as="offset" />
          </mxGeometry>
        </mxCell>
        <mxCell id="1L55RFzGqmZ6MLc_oT1--21" value="Se logado" style="rhombus;whiteSpace=wrap;html=1;sketch=1;curveFitting=1;jiggle=2;fontFamily=Comic Sans MS;" vertex="1" parent="1">
          <mxGeometry x="280" y="360" width="80" height="80" as="geometry" />
        </mxCell>
        <mxCell id="1L55RFzGqmZ6MLc_oT1--42" value="" style="edgeStyle=orthogonalEdgeStyle;rounded=0;orthogonalLoop=1;jettySize=auto;html=1;" edge="1" parent="1" source="1L55RFzGqmZ6MLc_oT1--37" target="1L55RFzGqmZ6MLc_oT1--41">
          <mxGeometry relative="1" as="geometry" />
        </mxCell>
        <mxCell id="1L55RFzGqmZ6MLc_oT1--37" value="Recuperar agendamentos" style="rounded=0;whiteSpace=wrap;html=1;sketch=1;curveFitting=1;jiggle=2;fontFamily=Comic Sans MS;" vertex="1" parent="1">
          <mxGeometry x="60" y="540" width="120" height="60" as="geometry" />
        </mxCell>
        <mxCell id="1L55RFzGqmZ6MLc_oT1--53" value="" style="edgeStyle=orthogonalEdgeStyle;rounded=0;orthogonalLoop=1;jettySize=auto;html=1;" edge="1" parent="1" source="1L55RFzGqmZ6MLc_oT1--41" target="1L55RFzGqmZ6MLc_oT1--52">
          <mxGeometry relative="1" as="geometry" />
        </mxCell>
        <mxCell id="1L55RFzGqmZ6MLc_oT1--41" value="Mostrar agendamentos" style="whiteSpace=wrap;html=1;fontFamily=Comic Sans MS;rounded=0;sketch=1;curveFitting=1;jiggle=2;" vertex="1" parent="1">
          <mxGeometry x="60" y="660" width="120" height="60" as="geometry" />
        </mxCell>
        <mxCell id="1L55RFzGqmZ6MLc_oT1--56" style="edgeStyle=orthogonalEdgeStyle;rounded=0;orthogonalLoop=1;jettySize=auto;html=1;" edge="1" parent="1" source="1L55RFzGqmZ6MLc_oT1--43" target="1L55RFzGqmZ6MLc_oT1--45">
          <mxGeometry relative="1" as="geometry" />
        </mxCell>
        <mxCell id="1L55RFzGqmZ6MLc_oT1--43" value="Enviar dados para agendamento do Usuario" style="whiteSpace=wrap;html=1;fontFamily=Comic Sans MS;rounded=0;sketch=1;curveFitting=1;jiggle=2;" vertex="1" parent="1">
          <mxGeometry x="60" y="880" width="120" height="60" as="geometry" />
        </mxCell>
        <mxCell id="1L55RFzGqmZ6MLc_oT1--48" value="" style="edgeStyle=orthogonalEdgeStyle;rounded=0;orthogonalLoop=1;jettySize=auto;html=1;" edge="1" parent="1" source="1L55RFzGqmZ6MLc_oT1--45" target="1L55RFzGqmZ6MLc_oT1--47">
          <mxGeometry relative="1" as="geometry" />
        </mxCell>
        <mxCell id="1L55RFzGqmZ6MLc_oT1--45" value="Mostrar resultados do agendamento" style="whiteSpace=wrap;html=1;fontFamily=Comic Sans MS;rounded=0;sketch=1;curveFitting=1;jiggle=2;" vertex="1" parent="1">
          <mxGeometry x="60" y="980" width="120" height="60" as="geometry" />
        </mxCell>
        <mxCell id="1L55RFzGqmZ6MLc_oT1--47" value="" style="ellipse;whiteSpace=wrap;html=1;fontFamily=Comic Sans MS;rounded=0;sketch=1;curveFitting=1;jiggle=2;shadow=0;fillColor=#E1D5E7;" vertex="1" parent="1">
          <mxGeometry x="230" y="1070" width="20" height="20" as="geometry" />
        </mxCell>
        <mxCell id="1L55RFzGqmZ6MLc_oT1--55" style="edgeStyle=orthogonalEdgeStyle;rounded=0;orthogonalLoop=1;jettySize=auto;html=1;" edge="1" parent="1" source="1L55RFzGqmZ6MLc_oT1--52" target="1L55RFzGqmZ6MLc_oT1--43">
          <mxGeometry relative="1" as="geometry" />
        </mxCell>
        <mxCell id="1L55RFzGqmZ6MLc_oT1--52" value="Selecionar&lt;div&gt;Serviços&lt;/div&gt;" style="whiteSpace=wrap;html=1;fontFamily=Comic Sans MS;rounded=0;sketch=1;curveFitting=1;jiggle=2;" vertex="1" parent="1">
          <mxGeometry x="60" y="780" width="120" height="60" as="geometry" />
        </mxCell>
        <mxCell id="1L55RFzGqmZ6MLc_oT1--60" style="edgeStyle=orthogonalEdgeStyle;rounded=0;orthogonalLoop=1;jettySize=auto;html=1;entryX=1;entryY=0.5;entryDx=0;entryDy=0;" edge="1" parent="1" source="1L55RFzGqmZ6MLc_oT1--58" target="1L55RFzGqmZ6MLc_oT1--37">
          <mxGeometry relative="1" as="geometry" />
        </mxCell>
        <mxCell id="1L55RFzGqmZ6MLc_oT1--67" value="" style="edgeStyle=orthogonalEdgeStyle;rounded=0;orthogonalLoop=1;jettySize=auto;html=1;" edge="1" parent="1" source="1L55RFzGqmZ6MLc_oT1--58" target="1L55RFzGqmZ6MLc_oT1--66">
          <mxGeometry relative="1" as="geometry" />
        </mxCell>
        <mxCell id="1L55RFzGqmZ6MLc_oT1--58" value="Recuperar dados Usuario" style="whiteSpace=wrap;html=1;fontFamily=Comic Sans MS;sketch=1;curveFitting=1;jiggle=2;" vertex="1" parent="1">
          <mxGeometry x="260" y="540" width="120" height="60" as="geometry" />
        </mxCell>
        <mxCell id="1L55RFzGqmZ6MLc_oT1--85" style="edgeStyle=orthogonalEdgeStyle;rounded=0;orthogonalLoop=1;jettySize=auto;html=1;exitX=0.5;exitY=1;exitDx=0;exitDy=0;" edge="1" parent="1" source="1L55RFzGqmZ6MLc_oT1--61" target="1L55RFzGqmZ6MLc_oT1--47">
          <mxGeometry relative="1" as="geometry">
            <Array as="points">
              <mxPoint x="320" y="1010" />
              <mxPoint x="240" y="1010" />
            </Array>
          </mxGeometry>
        </mxCell>
        <mxCell id="1L55RFzGqmZ6MLc_oT1--61" value="Mostrar Serviços" style="whiteSpace=wrap;html=1;fontFamily=Comic Sans MS;sketch=1;curveFitting=1;jiggle=2;" vertex="1" parent="1">
          <mxGeometry x="260" y="780" width="120" height="60" as="geometry" />
        </mxCell>
        <mxCell id="1L55RFzGqmZ6MLc_oT1--63" style="edgeStyle=orthogonalEdgeStyle;rounded=0;orthogonalLoop=1;jettySize=auto;html=1;entryX=1;entryY=0.5;entryDx=0;entryDy=0;" edge="1" parent="1" source="1L55RFzGqmZ6MLc_oT1--61" target="1L55RFzGqmZ6MLc_oT1--52">
          <mxGeometry relative="1" as="geometry" />
        </mxCell>
        <mxCell id="1L55RFzGqmZ6MLc_oT1--68" style="edgeStyle=orthogonalEdgeStyle;rounded=0;orthogonalLoop=1;jettySize=auto;html=1;" edge="1" parent="1" source="1L55RFzGqmZ6MLc_oT1--66" target="1L55RFzGqmZ6MLc_oT1--61">
          <mxGeometry relative="1" as="geometry" />
        </mxCell>
        <mxCell id="1L55RFzGqmZ6MLc_oT1--82" value="Não" style="edgeLabel;html=1;align=center;verticalAlign=middle;resizable=0;points=[];" connectable="0" vertex="1" parent="1L55RFzGqmZ6MLc_oT1--68">
          <mxGeometry x="-0.246" relative="1" as="geometry">
            <mxPoint as="offset" />
          </mxGeometry>
        </mxCell>
        <mxCell id="1L55RFzGqmZ6MLc_oT1--71" value="" style="edgeStyle=orthogonalEdgeStyle;rounded=0;orthogonalLoop=1;jettySize=auto;html=1;" edge="1" parent="1" source="1L55RFzGqmZ6MLc_oT1--66" target="1L55RFzGqmZ6MLc_oT1--70">
          <mxGeometry relative="1" as="geometry" />
        </mxCell>
        <mxCell id="1L55RFzGqmZ6MLc_oT1--81" value="Sim" style="edgeLabel;html=1;align=center;verticalAlign=middle;resizable=0;points=[];" connectable="0" vertex="1" parent="1L55RFzGqmZ6MLc_oT1--71">
          <mxGeometry x="-0.1097" relative="1" as="geometry">
            <mxPoint as="offset" />
          </mxGeometry>
        </mxCell>
        <mxCell id="1L55RFzGqmZ6MLc_oT1--66" value="Se admin" style="rhombus;whiteSpace=wrap;html=1;fontFamily=Comic Sans MS;sketch=1;curveFitting=1;jiggle=2;" vertex="1" parent="1">
          <mxGeometry x="280" y="650" width="80" height="80" as="geometry" />
        </mxCell>
        <mxCell id="1L55RFzGqmZ6MLc_oT1--74" style="edgeStyle=orthogonalEdgeStyle;rounded=0;orthogonalLoop=1;jettySize=auto;html=1;entryX=1;entryY=0.5;entryDx=0;entryDy=0;exitX=0.5;exitY=1;exitDx=0;exitDy=0;" edge="1" parent="1" source="1L55RFzGqmZ6MLc_oT1--70" target="1L55RFzGqmZ6MLc_oT1--61">
          <mxGeometry relative="1" as="geometry">
            <Array as="points">
              <mxPoint x="520" y="810" />
            </Array>
          </mxGeometry>
        </mxCell>
        <mxCell id="1L55RFzGqmZ6MLc_oT1--70" value="Cadastrar Serviços" style="whiteSpace=wrap;html=1;fontFamily=Comic Sans MS;sketch=1;curveFitting=1;jiggle=2;" vertex="1" parent="1">
          <mxGeometry x="460" y="660" width="120" height="60" as="geometry" />
        </mxCell>
        <mxCell id="1L55RFzGqmZ6MLc_oT1--86" value="Fim" style="text;html=1;align=center;verticalAlign=middle;resizable=0;points=[];autosize=1;strokeColor=none;fillColor=none;" vertex="1" parent="1">
          <mxGeometry x="255" y="1065" width="40" height="30" as="geometry" />
        </mxCell>
        <mxCell id="1L55RFzGqmZ6MLc_oT1--87" value="Inicio" style="text;html=1;align=center;verticalAlign=middle;resizable=0;points=[];autosize=1;strokeColor=none;fillColor=none;" vertex="1" parent="1">
          <mxGeometry x="130" y="265" width="50" height="30" as="geometry" />
        </mxCell>
      </root>
    </mxGraphModel>
  </diagram>
</mxfile>